<svg class="svg-icon" style="width: 1em; height: 1em;vertical-align: middle;fill: currentColor;overflow: hidden;" viewBox="0 0 1024 1024" version="1.1" xmlns="http://www.w3.org/2000/svg"><path d="M512 249.8c35.8 0 69.5 13.9 94.8 39.3 25.3 25.3 39.3 59 39.3 94.8s-13.9 69.5-39.3 94.8C581.5 504 547.8 518 512 518s-69.5-13.9-94.8-39.3c-25.3-25.3-39.3-59-39.3-94.8s13.9-69.5 39.3-94.8c25.3-25.4 59-39.3 94.8-39.3m0-64c-109.4 0-198.1 88.7-198.1 198.1s88.7 198 198.1 198 198.1-88.7 198.1-198.1-88.7-198-198.1-198z" fill="" /><path d="M512 64c43.2 0 85.1 8.4 124.5 25.1 38.1 16.1 72.3 39.2 101.7 68.6 29.4 29.4 52.5 63.6 68.6 101.7 16.7 39.4 25.1 81.3 25.1 124.5 0 26.1-9.1 75-52.7 159.7-30.3 59-72.9 126.8-126.6 201.6-51.9 72.3-104.3 137.2-140.6 180.6-36.1-43.2-88.2-107.6-139.9-179.7-53.9-75-96.6-143-127-202-43.7-85-52.9-134-52.9-160.2 0-43.2 8.4-85.1 25.1-124.5 16.1-38.1 39.2-72.3 68.6-101.7 29.4-29.4 63.6-52.5 101.7-68.6C426.9 72.4 468.8 64 512 64m0-64C300 0 128.2 171.9 128.2 383.8S512 1024 512 1024s383.8-428.2 383.8-640.2S724 0 512 0z" fill="" /></svg>