<?xml version="1.0" ?>
<!DOCTYPE svg  PUBLIC '-//W3C//DTD SVG 1.1//EN'  'http://www.w3.org/Graphics/SVG/1.1/DTD/svg11.dtd'>
<!-- Uploaded to: SVG Repo, www.svgrepo.com, Transformed by: SVG Repo Mixer Tools -->
<svg fill="#000000" width="800px" height="800px" viewBox="0 0 64 64" enable-background="new 0 0 64 64" version="1.1" xml:space="preserve" xmlns="http://www.w3.org/2000/svg" xmlns:xlink="http://www.w3.org/1999/xlink">
<g id="grid"/>
<g id="Layer_2"/>
<g id="Layer_3"/>
<g id="Layer_4"/>
<g id="Layer_5"/>
<g id="Layer_6"/>
<g id="Layer_7"/>
<g id="Layer_8"/>
<g id="Layer_9"/>
<g id="Layer_10">
<g>
<path d="M48.68,58.259H4.174V16.89H48.68V58.259z M6.174,56.259H46.68V18.89H6.174V56.259z"/>
</g>
<g>
<polygon points="5.011,42.688 4.29,40.822 23.156,33.525 34.12,38.745 41.335,35.753 48.224,40.22 47.136,41.897 41.13,38.003     34.063,40.933 23.074,35.701   "/>
</g>
<g>
<path d="M13.535,30.313c-1.97,0-3.572-1.602-3.572-3.571c0-1.969,1.603-3.57,3.572-3.57s3.572,1.602,3.572,3.57    C17.107,28.71,15.505,30.313,13.535,30.313z M13.535,25.171c-0.867,0-1.572,0.705-1.572,1.57c0,0.866,0.705,1.571,1.572,1.571    s1.572-0.705,1.572-1.571C15.107,25.875,14.402,25.171,13.535,25.171z"/>
</g>
<g>
<polygon points="54.252,50.291 52.252,50.291 52.252,13.315 10.748,13.315 10.748,11.315 54.252,11.315   "/>
</g>
<g>
<polygon points="59.826,44.717 57.826,44.717 57.826,7.741 16.322,7.741 16.322,5.741 59.826,5.741   "/>
</g>
</g>
<g id="Layer_37"/>
<g id="Layer_11"/>
<g id="Layer_12"/>
<g id="Layer_13"/>
<g id="Layer_14"/>
<g id="Layer_16"/>
<g id="Layer_17"/>
<g id="Layer_18"/>
<g id="Layer_19"/>
<g id="Layer_20"/>
<g id="Layer_21"/>
<g id="Layer_22"/>
<g id="Layer_23"/>
<g id="Layer_24"/>
<g id="Layer_25"/>
</svg>